<mxfile host="Electron" agent="Mozilla/5.0 (Windows NT 10.0; Win64; x64) AppleWebKit/537.36 (KHTML, like Gecko) draw.io/26.2.2 Chrome/134.0.6998.178 Electron/35.1.2 Safari/537.36" version="26.2.2">
  <diagram id="C5RBs43oDa-KdzZeNtuy" name="Page-1">
    <mxGraphModel dx="3907" dy="834" grid="1" gridSize="10" guides="1" tooltips="1" connect="1" arrows="0" fold="1" page="0" pageScale="1" pageWidth="827" pageHeight="1169" math="0" shadow="0" adaptiveColors="auto">
      <root>
        <mxCell id="WIyWlLk6GJQsqaUBKTNV-0" />
        <mxCell id="WIyWlLk6GJQsqaUBKTNV-1" parent="WIyWlLk6GJQsqaUBKTNV-0" />
        <mxCell id="HlwJ4vFnk3lEtQnq5Rxz-26" value="&lt;span style=&quot;text-align: justify;&quot;&gt;Ministerstvo investícií&lt;/span&gt;" style="html=1;outlineConnect=0;whiteSpace=wrap;fillColor=#FFF323;shape=mxgraph.archimate3.application;appType=actor;archiType=square;strokeColor=#000000;" parent="WIyWlLk6GJQsqaUBKTNV-1" vertex="1">
          <mxGeometry x="-1400" y="800" width="240" height="160" as="geometry" />
        </mxCell>
        <mxCell id="HlwJ4vFnk3lEtQnq5Rxz-27" value="&lt;b&gt;Orgán vedenia&lt;/b&gt;&lt;div&gt;&lt;br&gt;&lt;div&gt;95/2019 §5 (1) a)&lt;/div&gt;&lt;/div&gt;" style="html=1;outlineConnect=0;whiteSpace=wrap;fillColor=#FFF323;shape=mxgraph.archimate3.application;appType=role;archiType=square;strokeColor=#000000;align=center;verticalAlign=top;fontFamily=Helvetica;fontSize=12;" parent="WIyWlLk6GJQsqaUBKTNV-1" vertex="1">
          <mxGeometry x="-1040" y="800" width="240" height="160" as="geometry" />
        </mxCell>
        <mxCell id="HlwJ4vFnk3lEtQnq5Rxz-29" value="" style="endArrow=block;html=1;endFill=1;startArrow=oval;startFill=1;edgeStyle=elbowEdgeStyle;elbow=vertical;rounded=0;" parent="WIyWlLk6GJQsqaUBKTNV-1" source="HlwJ4vFnk3lEtQnq5Rxz-26" target="HlwJ4vFnk3lEtQnq5Rxz-27" edge="1">
          <mxGeometry width="160" relative="1" as="geometry">
            <mxPoint x="-1210" y="700" as="sourcePoint" />
            <mxPoint x="-1050" y="700" as="targetPoint" />
          </mxGeometry>
        </mxCell>
        <mxCell id="HlwJ4vFnk3lEtQnq5Rxz-30" value="&lt;b&gt;Vedenie v správe informačných technológií verejnej správy&lt;/b&gt;&lt;div style=&quot;text-align: left;&quot;&gt;&lt;br&gt;&lt;/div&gt;&lt;div style=&quot;text-align: left;&quot;&gt;monitoruje,&amp;nbsp;&lt;span style=&quot;background-color: transparent; color: light-dark(rgb(0, 0, 0), rgb(255, 255, 255));&quot;&gt;usmerňuje a koordinuje orgány riadenia&lt;/span&gt;&lt;/div&gt;&lt;div style=&quot;text-align: left;&quot;&gt;vypracúva národnú koncepciu&lt;/div&gt;&lt;div style=&quot;text-align: left;&quot;&gt;&lt;span style=&quot;background-color: transparent; color: light-dark(rgb(0, 0, 0), rgb(255, 255, 255));&quot;&gt;určuje centrálnu architektúru informačných technológií verejnej správy&lt;/span&gt;&lt;/div&gt;&lt;div style=&quot;text-align: left;&quot;&gt;vydáva štandardy a výkladové stanoviská&lt;/div&gt;&lt;div style=&quot;text-align: left;&quot;&gt;&lt;span style=&quot;background-color: transparent; color: light-dark(rgb(0, 0, 0), rgb(255, 255, 255));&quot;&gt;95/2013 §7 - 10&lt;/span&gt;&lt;/div&gt;&lt;div style=&quot;text-align: left;&quot;&gt;&lt;br&gt;&lt;/div&gt;" style="html=1;outlineConnect=0;whiteSpace=wrap;fillColor=#FFF323;shape=mxgraph.archimate3.application;appType=func;archiType=rounded;strokeColor=#000000;verticalAlign=top;spacing=5;" parent="WIyWlLk6GJQsqaUBKTNV-1" vertex="1">
          <mxGeometry x="-680" y="800" width="400" height="160" as="geometry" />
        </mxCell>
        <mxCell id="HlwJ4vFnk3lEtQnq5Rxz-31" value="" style="endArrow=block;html=1;endFill=1;startArrow=oval;startFill=1;edgeStyle=elbowEdgeStyle;elbow=vertical;rounded=0;" parent="WIyWlLk6GJQsqaUBKTNV-1" source="HlwJ4vFnk3lEtQnq5Rxz-27" target="HlwJ4vFnk3lEtQnq5Rxz-30" edge="1">
          <mxGeometry width="160" relative="1" as="geometry">
            <mxPoint x="-720" y="800" as="sourcePoint" />
            <mxPoint x="-560" y="800" as="targetPoint" />
          </mxGeometry>
        </mxCell>
        <mxCell id="HlwJ4vFnk3lEtQnq5Rxz-32" value="&lt;div style=&quot;text-align: center;&quot;&gt;&lt;b style=&quot;background-color: transparent; color: light-dark(rgb(0, 0, 0), rgb(255, 255, 255));&quot;&gt;Orgán riadenia&amp;nbsp;&lt;/b&gt;&lt;/div&gt;&lt;div style=&quot;text-align: center;&quot;&gt;&lt;span style=&quot;background-color: transparent; color: light-dark(rgb(0, 0, 0), rgb(255, 255, 255));&quot;&gt;&lt;br&gt;&lt;/span&gt;&lt;/div&gt;&lt;div style=&quot;&quot;&gt;&lt;span style=&quot;background-color: transparent;&quot;&gt;Orgánom riadenia na účely tohto zákona je ...&lt;/span&gt;&lt;/div&gt;&lt;div style=&quot;&quot;&gt;&lt;span style=&quot;background-color: transparent; color: light-dark(rgb(0, 0, 0), rgb(255, 255, 255));&quot;&gt;95/2019 §5 (2)&lt;/span&gt;&lt;/div&gt;" style="html=1;outlineConnect=0;whiteSpace=wrap;fillColor=#FFC800;shape=mxgraph.archimate3.application;appType=role;archiType=square;strokeColor=#000000;align=left;verticalAlign=top;fontFamily=Helvetica;fontSize=12;" parent="WIyWlLk6GJQsqaUBKTNV-1" vertex="1">
          <mxGeometry x="-1040" y="1000" width="240" height="170" as="geometry" />
        </mxCell>
        <mxCell id="HlwJ4vFnk3lEtQnq5Rxz-33" value="&lt;span style=&quot;text-align: justify;&quot;&gt;Ministerstvo, GP, NKÚ, ÚDZS, ... NR SR, ... regulované profesie a komory, ...&lt;/span&gt;" style="html=1;outlineConnect=0;whiteSpace=wrap;fillColor=#FFF323;shape=mxgraph.archimate3.application;appType=actor;archiType=square;strokeColor=#000000;" parent="WIyWlLk6GJQsqaUBKTNV-1" vertex="1">
          <mxGeometry x="-1400" y="1000" width="240" height="170" as="geometry" />
        </mxCell>
        <mxCell id="HlwJ4vFnk3lEtQnq5Rxz-34" value="" style="endArrow=block;html=1;endFill=1;startArrow=oval;startFill=1;edgeStyle=elbowEdgeStyle;elbow=vertical;rounded=0;" parent="WIyWlLk6GJQsqaUBKTNV-1" source="HlwJ4vFnk3lEtQnq5Rxz-33" target="HlwJ4vFnk3lEtQnq5Rxz-32" edge="1">
          <mxGeometry width="160" relative="1" as="geometry">
            <mxPoint x="-2710" y="510" as="sourcePoint" />
            <mxPoint x="-2550" y="510" as="targetPoint" />
          </mxGeometry>
        </mxCell>
        <mxCell id="HlwJ4vFnk3lEtQnq5Rxz-35" value="&lt;b&gt;Riadenie v správe informačných technológií verejnej správy&lt;/b&gt;&lt;div style=&quot;text-align: left;&quot;&gt;&lt;br&gt;&lt;/div&gt;&lt;div style=&quot;text-align: left;&quot;&gt;&lt;br&gt;&lt;/div&gt;&lt;div style=&quot;text-align: left;&quot;&gt;vytváranie, správu a rozvoj informačnej technológie verejnej správy&amp;nbsp;&lt;/div&gt;&lt;div style=&quot;text-align: left;&quot;&gt;zabezpečovať plynulú, bezpečnú a spoľahlivú prevádzku informačných technológií verejnej správy&lt;/div&gt;&lt;div style=&quot;text-align: left;&quot;&gt;&lt;span style=&quot;background-color: transparent; color: light-dark(rgb(0, 0, 0), rgb(255, 255, 255));&quot;&gt;zabezpečiť, aby ... údaj ... ktorý sa nachádza v IS VS... boli dostupné aj iným OVM&lt;/span&gt;&lt;span style=&quot;background-color: transparent; color: light-dark(rgb(0, 0, 0), rgb(255, 255, 255));&quot;&gt;,&amp;nbsp;&lt;/span&gt;&lt;span style=&quot;background-color: transparent; color: light-dark(rgb(0, 0, 0), rgb(255, 255, 255));&quot;&gt;§12 (1) f)&amp;nbsp;&amp;nbsp;&lt;/span&gt;&lt;span style=&quot;background-color: transparent; color: light-dark(rgb(0, 0, 0), rgb(255, 255, 255));&quot;&gt;sprístupnenie najmenej na webovom sídle §11 (8)&lt;/span&gt;&lt;/div&gt;&lt;div style=&quot;text-align: left;&quot;&gt;&lt;span style=&quot;background-color: transparent;&quot;&gt;koncepcia rozvoja je dokument vypracovaný orgánom riadenia §13&lt;/span&gt;&lt;/div&gt;&lt;div style=&quot;text-align: left;&quot;&gt;&lt;span style=&quot;background-color: transparent;&quot;&gt;,,,&lt;/span&gt;&lt;/div&gt;&lt;div style=&quot;text-align: left;&quot;&gt;&lt;span style=&quot;background-color: transparent; color: light-dark(rgb(0, 0, 0), rgb(255, 255, 255));&quot;&gt;95/2013 §11 - 14&lt;/span&gt;&lt;/div&gt;&lt;div style=&quot;text-align: left;&quot;&gt;&lt;br&gt;&lt;/div&gt;" style="html=1;outlineConnect=0;whiteSpace=wrap;fillColor=#FFF323;shape=mxgraph.archimate3.application;appType=func;archiType=rounded;strokeColor=#000000;verticalAlign=top;spacing=5;" parent="WIyWlLk6GJQsqaUBKTNV-1" vertex="1">
          <mxGeometry x="-680" y="1000" width="400" height="170" as="geometry" />
        </mxCell>
        <mxCell id="HlwJ4vFnk3lEtQnq5Rxz-36" value="" style="endArrow=block;html=1;endFill=1;startArrow=oval;startFill=1;edgeStyle=elbowEdgeStyle;elbow=vertical;rounded=0;" parent="WIyWlLk6GJQsqaUBKTNV-1" source="HlwJ4vFnk3lEtQnq5Rxz-32" target="HlwJ4vFnk3lEtQnq5Rxz-35" edge="1">
          <mxGeometry width="160" relative="1" as="geometry">
            <mxPoint x="-790" y="870" as="sourcePoint" />
            <mxPoint x="-670" y="870" as="targetPoint" />
          </mxGeometry>
        </mxCell>
        <mxCell id="HlwJ4vFnk3lEtQnq5Rxz-37" value="Formulár" style="html=1;outlineConnect=0;whiteSpace=wrap;fillColor=#66CCFF;shape=mxgraph.archimate3.application;appType=passive;archiType=square;strokeColor=#000000;verticalAlign=top;fontStyle=1" parent="WIyWlLk6GJQsqaUBKTNV-1" vertex="1">
          <mxGeometry x="-520" y="1240" width="240" height="130" as="geometry" />
        </mxCell>
        <mxCell id="HlwJ4vFnk3lEtQnq5Rxz-38" value="Aplikačná služba&lt;div&gt;&lt;br&gt;&lt;/div&gt;&lt;div&gt;&lt;br&gt;&lt;/div&gt;" style="html=1;outlineConnect=0;whiteSpace=wrap;fillColor=#66CCFF;shape=mxgraph.archimate3.application;appType=serv;archiType=rounded;strokeColor=#000000;fontStyle=1;container=0;verticalAlign=top;" parent="WIyWlLk6GJQsqaUBKTNV-1" vertex="1">
          <mxGeometry x="-820" y="1240" width="240" height="130" as="geometry" />
        </mxCell>
        <mxCell id="HlwJ4vFnk3lEtQnq5Rxz-39" value="IS" style="html=1;outlineConnect=0;whiteSpace=wrap;fillColor=#66CCFF;shape=mxgraph.archimate3.application;appType=comp;archiType=square;strokeColor=#000000;verticalAlign=top;fontStyle=1" parent="WIyWlLk6GJQsqaUBKTNV-1" vertex="1">
          <mxGeometry x="-820" y="1400" width="240" height="120" as="geometry" />
        </mxCell>
        <mxCell id="HlwJ4vFnk3lEtQnq5Rxz-40" value="Infraštuktúrna služba" style="html=1;outlineConnect=0;whiteSpace=wrap;fillColor=#33CC66;shape=mxgraph.archimate3.application;appType=serv;archiType=rounded;strokeColor=#000000;verticalAlign=top;fontStyle=1" parent="WIyWlLk6GJQsqaUBKTNV-1" vertex="1">
          <mxGeometry x="-820" y="1560" width="240" height="120" as="geometry" />
        </mxCell>
        <mxCell id="HlwJ4vFnk3lEtQnq5Rxz-41" value="" style="edgeStyle=elbowEdgeStyle;html=1;endArrow=block;elbow=vertical;endFill=0;dashed=1;rounded=0;" parent="WIyWlLk6GJQsqaUBKTNV-1" source="HlwJ4vFnk3lEtQnq5Rxz-39" target="HlwJ4vFnk3lEtQnq5Rxz-38" edge="1">
          <mxGeometry width="160" relative="1" as="geometry">
            <mxPoint x="-940" y="1690" as="sourcePoint" />
            <mxPoint x="-780" y="1690" as="targetPoint" />
          </mxGeometry>
        </mxCell>
        <mxCell id="HlwJ4vFnk3lEtQnq5Rxz-42" value="" style="edgeStyle=elbowEdgeStyle;html=1;endArrow=open;elbow=vertical;endFill=1;rounded=0;" parent="WIyWlLk6GJQsqaUBKTNV-1" source="HlwJ4vFnk3lEtQnq5Rxz-40" target="HlwJ4vFnk3lEtQnq5Rxz-39" edge="1">
          <mxGeometry width="160" relative="1" as="geometry">
            <mxPoint x="-650" y="1560" as="sourcePoint" />
            <mxPoint x="-490" y="1560" as="targetPoint" />
          </mxGeometry>
        </mxCell>
        <mxCell id="HlwJ4vFnk3lEtQnq5Rxz-43" value="&lt;div&gt;&lt;b&gt;Služba verejnej správy&lt;/b&gt;&lt;/div&gt;&lt;div&gt;&lt;b&gt;&lt;br&gt;&lt;/b&gt;&lt;/div&gt;&lt;div style=&quot;text-align: left;&quot;&gt;&lt;br&gt;&lt;/div&gt;" style="html=1;outlineConnect=0;whiteSpace=wrap;fillColor=#FFF323;shape=mxgraph.archimate3.application;appType=serv;archiType=rounded;strokeColor=#000000;fontStyle=0;container=0;verticalAlign=top;spacing=5;strokeWidth=1;" parent="WIyWlLk6GJQsqaUBKTNV-1" vertex="1">
          <mxGeometry x="-1400" y="1240" width="240" height="130" as="geometry" />
        </mxCell>
        <mxCell id="HlwJ4vFnk3lEtQnq5Rxz-45" value="webové sídlo" style="html=1;outlineConnect=0;whiteSpace=wrap;fillColor=#66CCFF;shape=mxgraph.archimate3.application;appType=interface;archiType=square;strokeColor=#000000;verticalAlign=top;fontStyle=1" parent="WIyWlLk6GJQsqaUBKTNV-1" vertex="1">
          <mxGeometry x="-520" y="1400" width="240" height="120" as="geometry" />
        </mxCell>
        <mxCell id="HlwJ4vFnk3lEtQnq5Rxz-46" value="" style="edgeStyle=elbowEdgeStyle;html=1;endArrow=block;elbow=vertical;endFill=0;dashed=1;rounded=0;" parent="WIyWlLk6GJQsqaUBKTNV-1" source="HlwJ4vFnk3lEtQnq5Rxz-38" target="HlwJ4vFnk3lEtQnq5Rxz-47" edge="1">
          <mxGeometry width="160" relative="1" as="geometry">
            <mxPoint x="-1260" y="1540" as="sourcePoint" />
            <mxPoint x="-1100" y="1540" as="targetPoint" />
          </mxGeometry>
        </mxCell>
        <mxCell id="HlwJ4vFnk3lEtQnq5Rxz-47" value="&lt;div&gt;&lt;b&gt;Elektronická služba verejnej správy&lt;/b&gt;&lt;/div&gt;&lt;div&gt;&lt;b&gt;&lt;br&gt;&lt;/b&gt;&lt;/div&gt;&lt;div style=&quot;text-align: left;&quot;&gt;elektronická komunikácia s orgánom riadenia pri vybavovaní podania, oznámenia, pri prístupe k informáciám a ich poskytovaní alebo pri účasti verejnosti na správe verejných vecí&lt;/div&gt;&lt;div style=&quot;text-align: left;&quot;&gt;92/2019 §3l&lt;/div&gt;" style="html=1;outlineConnect=0;whiteSpace=wrap;fillColor=#FFF323;shape=mxgraph.archimate3.application;appType=serv;archiType=rounded;strokeColor=#000000;fontStyle=0;container=0;verticalAlign=top;spacing=5;strokeWidth=1;" parent="WIyWlLk6GJQsqaUBKTNV-1" vertex="1">
          <mxGeometry x="-1120" y="1240" width="240" height="130" as="geometry" />
        </mxCell>
        <mxCell id="HlwJ4vFnk3lEtQnq5Rxz-48" value="" style="endArrow=block;html=1;endFill=0;edgeStyle=elbowEdgeStyle;elbow=vertical;rounded=0;" parent="WIyWlLk6GJQsqaUBKTNV-1" source="HlwJ4vFnk3lEtQnq5Rxz-47" target="HlwJ4vFnk3lEtQnq5Rxz-43" edge="1">
          <mxGeometry width="160" relative="1" as="geometry">
            <mxPoint x="-1580" y="1370" as="sourcePoint" />
            <mxPoint x="-1420" y="1370" as="targetPoint" />
          </mxGeometry>
        </mxCell>
        <mxCell id="HlwJ4vFnk3lEtQnq5Rxz-49" value="&lt;b&gt;Výkon verejnej moci elektronicky&lt;/b&gt;&lt;div style=&quot;text-align: left;&quot;&gt;výkon verejnej moci prostredníctvom elektronickej úradnej komunikácie,&amp;nbsp;&lt;span style=&quot;background-color: transparent; color: light-dark(rgb(0, 0, 0), rgb(255, 255, 255));&quot;&gt;305/2013 §3 b)&lt;/span&gt;&lt;/div&gt;" style="html=1;outlineConnect=0;whiteSpace=wrap;fillColor=#FFFFFF;shape=mxgraph.archimate3.application;appType=func;archiType=rounded;strokeColor=#000000;verticalAlign=middle;spacing=5;" parent="WIyWlLk6GJQsqaUBKTNV-1" vertex="1">
          <mxGeometry x="-1400" y="720" width="1120" height="40" as="geometry" />
        </mxCell>
      </root>
    </mxGraphModel>
  </diagram>
</mxfile>
